<?xml version="1.0" encoding="UTF-8" standalone="no"?>
<!DOCTYPE svg PUBLIC "-//W3C//DTD SVG 1.1//EN"
 "http://www.w3.org/Graphics/SVG/1.1/DTD/svg11.dtd">
<!-- Generated by graphviz version 2.40.1 (20161225.0304)
 -->
<!-- Title: %3 Pages: 1 -->
<svg width="198pt" height="357pt"
 viewBox="0.00 0.00 198.00 357.00" xmlns="http://www.w3.org/2000/svg" xmlns:xlink="http://www.w3.org/1999/xlink">
<g id="graph0" class="graph" transform="scale(1 1) rotate(0) translate(72 321)">
<title>%3</title>
<polygon fill="#ffffff" stroke="transparent" points="-72,36 -72,-321 126,-321 126,36 -72,36"/>
<!-- /outputs/5 -->
<g id="node1" class="node">
<title>/outputs/5</title>
<polygon fill="#e8e8e8" stroke="#000000" points="54,-285 0,-285 0,-249 54,-249 54,-285"/>
<text text-anchor="start" x="13" y="-264" font-family="Times" font-size="10.00" fill="#000000">Linear</text>
</g>
<!-- /outputs/6 -->
<g id="node2" class="node">
<title>/outputs/6</title>
<polygon fill="#e8e8e8" stroke="#000000" points="54,-202 0,-202 0,-166 54,-166 54,-202"/>
<text text-anchor="start" x="17" y="-181" font-family="Times" font-size="10.00" fill="#000000">Relu</text>
</g>
<!-- /outputs/5&#45;&gt;/outputs/6 -->
<g id="edge1" class="edge">
<title>/outputs/5&#45;&gt;/outputs/6</title>
<path fill="none" stroke="#000000" d="M27,-248.9902C27,-238.2963 27,-224.4994 27,-212.3706"/>
<polygon fill="#000000" stroke="#000000" points="30.5001,-212.2612 27,-202.2612 23.5001,-212.2613 30.5001,-212.2612"/>
<text text-anchor="middle" x="40.5" y="-223" font-family="Times" font-size="10.00" fill="#000000">1x100</text>
</g>
<!-- /outputs/7 -->
<g id="node3" class="node">
<title>/outputs/7</title>
<polygon fill="#e8e8e8" stroke="#000000" points="54,-119 0,-119 0,-83 54,-83 54,-119"/>
<text text-anchor="start" x="13" y="-98" font-family="Times" font-size="10.00" fill="#000000">Linear</text>
</g>
<!-- /outputs/6&#45;&gt;/outputs/7 -->
<g id="edge2" class="edge">
<title>/outputs/6&#45;&gt;/outputs/7</title>
<path fill="none" stroke="#000000" d="M27,-165.9902C27,-155.2963 27,-141.4994 27,-129.3706"/>
<polygon fill="#000000" stroke="#000000" points="30.5001,-129.2612 27,-119.2612 23.5001,-129.2613 30.5001,-129.2612"/>
<text text-anchor="middle" x="40.5" y="-140" font-family="Times" font-size="10.00" fill="#000000">1x100</text>
</g>
<!-- /outputs/8 -->
<g id="node4" class="node">
<title>/outputs/8</title>
<polygon fill="#e8e8e8" stroke="#000000" points="54,-36 0,-36 0,0 54,0 54,-36"/>
<text text-anchor="start" x="17" y="-15" font-family="Times" font-size="10.00" fill="#000000">Relu</text>
</g>
<!-- /outputs/7&#45;&gt;/outputs/8 -->
<g id="edge3" class="edge">
<title>/outputs/7&#45;&gt;/outputs/8</title>
<path fill="none" stroke="#000000" d="M27,-82.9902C27,-72.2963 27,-58.4994 27,-46.3706"/>
<polygon fill="#000000" stroke="#000000" points="30.5001,-46.2612 27,-36.2612 23.5001,-46.2613 30.5001,-46.2612"/>
<text text-anchor="middle" x="38" y="-57" font-family="Times" font-size="10.00" fill="#000000">1x10</text>
</g>
</g>
</svg>
